<svg xmlns="http://www.w3.org/2000/svg" xmlns:xlink="http://www.w3.org/1999/xlink" version="1.1" id="Layer_1" x="0px" y="0px" viewBox="0 9 100 22" style="enable-background:new 0 0 100 40;" xml:space="preserve">
<style type="text/css">
	.st0{fill:#FFFFFF;}
	.st1{fill:#20BAE8;}
	.st2{enable-background:new    ;}
	.st3{fill:#6F7173;}
</style>
<path class="st0" d="M14.6,29.4L14.6,29.4c-5,0-9.1-4.1-9.1-9.1v0c0-5,4.1-9.1,9.1-9.1h0c5,0,9.1,4.1,9.1,9.1v0  C23.7,25.3,19.6,29.4,14.6,29.4z"/>
<g>
	<rect x="86.7" y="16.4" class="st1" width="9.2" height="1"/>
	<rect x="86.7" y="22.7" class="st1" width="9.2" height="1"/>
	<rect x="28.1" y="16.4" class="st0" width="1.9" height="7.3"/>
	<path class="st0" d="M38.5,20.9c-0.4,1.7-1.9,2.9-3.7,2.9C32.5,23.8,31,22,31,20c0-1.9,1.4-3.8,3.8-3.8c2.3,0,3.5,1.8,3.7,2.9h-1.9   c-0.2-0.5-0.8-1.3-1.8-1.3c-1.2,0-1.9,1.1-1.9,2.1c0,1.1,0.7,2.2,2,2.2c1.2,0,1.6-1,1.7-1.2H38.5z"/>
	<polygon class="st0" points="39.4,16.4 43.4,16.4 43.4,18 41.2,18 41.2,19.2 43.4,19.2 43.4,20.8 41.2,20.8 41.2,22 43.4,22    43.4,23.7 39.4,23.7  "/>
	<rect x="44.5" y="19.2" class="st0" width="4.3" height="1.6"/>
	<polygon class="st0" points="86.7,18.1 87.7,18.1 87.7,21.1 88.8,21.1 88.8,21.9 86.7,21.9  "/>
	<path class="st0" d="M93.1,18.1h1.2c0.6,0,0.9,0.1,1.2,0.4c0.2,0.2,0.2,0.4,0.2,0.6c0,0.3-0.1,0.6-0.4,0.8c0.6,0.2,0.6,0.7,0.6,0.9   c0,0.3-0.1,0.6-0.3,0.8c-0.3,0.3-0.6,0.3-1.2,0.3h-1.2V18.1z M94,19.6h0.3c0.1,0,0.4,0,0.4-0.3c0-0.3-0.3-0.3-0.4-0.3H94V19.6z    M94,21.1h0.5c0.1,0,0.5,0,0.5-0.4c0-0.3-0.3-0.3-0.5-0.3H94V21.1z"/>
	<polygon class="st0" points="91.3,18.1 90.5,18.1 89,21.9 90,21.9 90.9,19.7 91.5,21.1 90.7,21.1 90.7,21.9 92.8,21.9  "/>
	<path class="st0" d="M57.3,20.9c-0.4,1.7-1.9,2.9-3.7,2.9c-2.3,0-3.8-1.8-3.8-3.8c0-1.9,1.4-3.8,3.8-3.8c2.3,0,3.5,1.8,3.7,2.9   h-1.9c-0.2-0.5-0.8-1.3-1.8-1.3c-1.2,0-1.9,1.1-1.9,2.1c0,1.1,0.7,2.2,2,2.2c1.2,0,1.6-1,1.7-1.2H57.3z"/>
	<path class="st0" d="M58.3,16.4h2.3c1.3,0,1.8,0.2,2.2,0.5c0.6,0.5,0.9,1.2,0.9,2c0,0.8-0.4,2.1-1.8,2.3l2,2.5h-2.1l-1.7-2.3h0v2.3   h-1.8V16.4z M60.1,20.1h0.7c1.1,0,1.2-0.7,1.2-1c0-0.7-0.5-1-1.2-1h-0.7V20.1z"/>
	<polygon class="st0" points="64.7,16.4 68.7,16.4 68.7,18 66.5,18 66.5,19.2 68.7,19.2 68.7,20.8 66.5,20.8 66.5,22 68.7,22    68.7,23.7 64.7,23.7  "/>
	<polygon class="st0" points="73.6,16.4 72.2,16.4 69.3,23.7 71.2,23.7 72.9,19.4 74,22 72.3,22 72.3,23.7 76.5,23.7  "/>
	<polygon class="st0" points="82.3,16.4 80.9,19.4 79.5,16.4 77.1,16.4 77.1,23.7 78.8,23.7 78.8,18.2 80.3,21.4 81.6,21.4    83.1,18.2 83.1,23.6 83.1,23.7 83.1,23.7 84.8,23.7 84.8,16.4  "/>
	<path class="st1" d="M5.1,20c0,5.3,4.3,9.7,9.7,9.7c5.3,0,9.7-4.3,9.7-9.7s-4.3-9.7-9.7-9.7C9.4,10.3,5.1,14.7,5.1,20 M6.3,20   c0-4.7,3.8-8.5,8.5-8.5c4.7,0,8.5,3.8,8.5,8.5c0,4.7-3.8,8.5-8.5,8.5C10.1,28.5,6.3,24.7,6.3,20"/>
	<g class="st2">
		<g>
			<path class="st1" d="M13.5,17c-1.2,0-2.2,1-2.2,2.2c0,1.2,1,2.2,2.2,2.2c1.2,0,2.2-1,2.2-2.2C15.6,18,14.7,17,13.5,17"/>
		</g>
	</g>
	<path class="st3" d="M16.9,25.6c0,0-1.2-2-1.2-2.1v-1.2c0-0.1,0-0.3-0.9-0.3c-0.9,0-0.9,0.2-0.9,0.3v1.2c0,0.1-1.2,2.1-1.2,2.1   c0,0,0,0,0,0.1c0,0,0,0,0,0c0,0.5,1.1,0.7,2.2,0.7C15.8,26.4,16.9,26.2,16.9,25.6L16.9,25.6C17,25.6,17,25.6,16.9,25.6"/>
	<path class="st3" d="M16.6,20.4v2.6c0,0.2,0.1,0.3,0.3,0.3c0.2,0,0.3-0.1,0.3-0.3v-2.6c0-0.2-0.1-0.3-0.3-0.3   C16.8,20.1,16.6,20.3,16.6,20.4"/>
	<path class="st1" d="M12.5,19.5v2.6c0,0.2,0.1,0.3,0.3,0.3c0.2,0,0.3-0.1,0.3-0.3v-2.6c0-0.2-0.1-0.3-0.3-0.3   C12.6,19.2,12.5,19.4,12.5,19.5"/>
	<path class="st3" d="M17.4,20.2v1.5c0,0.2,0.1,0.3,0.3,0.3c0.2,0,0.3-0.1,0.3-0.3v-1.5c0-0.2-0.1-0.3-0.3-0.3   C17.6,19.9,17.4,20,17.4,20.2"/>
	<g class="st2">
		<g>
			<path class="st1" d="M11.3,17.9c-0.5-0.4-0.8-1-0.8-1.6c0,0,0-0.1,0-0.1c-0.7,0.2-1.3,0.9-1.3,1.7c0,0.9,0.8,1.7,1.7,1.7     c0-0.1,0-0.2,0-0.4C10.9,18.7,11.1,18.3,11.3,17.9"/>
		</g>
	</g>
	<g class="st2">
		<g>
			<path class="st1" d="M20.3,17.4c0-1.1-0.9-2-2-2c-0.2,0-0.3,0-0.5,0.1c0.2,0.3,0.3,0.7,0.3,1.1c0,0.2,0,0.4-0.1,0.6     c0.7,0.4,1.1,1.2,1.1,2c0,0,0,0.1,0,0.1C19.8,18.9,20.3,18.2,20.3,17.4"/>
		</g>
	</g>
	<g class="st2">
		<g>
			<path class="st1" d="M15.4,14.3c-0.5,0-0.9,0.2-1.3,0.4c0.4,0.4,0.7,0.9,0.7,1.6c0,0.2,0,0.5-0.1,0.7c0.2,0.1,0.4,0.2,0.5,0.4     c0.4-0.3,0.9-0.6,1.5-0.6c0.3,0,0.6,0.1,0.9,0.2c0-0.1,0-0.3,0-0.4C17.6,15.3,16.6,14.3,15.4,14.3"/>
		</g>
	</g>
	<g class="st2">
		<g>
			<path class="st3" d="M16.7,17.1c-0.5,0-0.9,0.2-1.2,0.4c0.4,0.4,0.6,1,0.6,1.6c0,0.6-0.2,1.1-0.5,1.5c0.3,0.2,0.7,0.4,1.2,0.4     c1.1,0,2-0.9,2-2C18.7,18,17.8,17.1,16.7,17.1"/>
		</g>
	</g>
	<g class="st2">
		<g>
			<path class="st3" d="M13.5,16.7c0.3,0,0.6,0,0.8,0.1c0.1-0.2,0.1-0.3,0.1-0.5c0-1-0.8-1.7-1.7-1.7c-1,0-1.7,0.8-1.7,1.7     c0,0.5,0.2,1,0.6,1.3C12,17,12.7,16.7,13.5,16.7"/>
		</g>
	</g>
</g>
</svg>